<svg width="42" height="42" viewBox="0 0 42 42" fill="none" xmlns="http://www.w3.org/2000/svg">
<path d="M39.095 20.7289C39.095 30.7408 30.9784 38.8664 20.9574 38.8664C10.9364 38.8664 2.81982 30.7408 2.81982 20.7289C2.81982 10.7079 10.9364 2.59131 20.9574 2.59131C30.9784 2.59131 39.095 10.7079 39.095 20.7289Z" fill="#283544"/>
<path d="M29.4584 16.1391C29.3595 16.1968 27.0033 17.4153 27.0033 20.117C27.1144 23.1981 29.9767 24.2786 30.0257 24.2786C29.9767 24.3364 29.5936 25.7506 28.459 27.233C27.5586 28.51 26.5592 29.7975 25.0415 29.7975C23.5979 29.7975 23.0797 28.9464 21.414 28.9464C19.6252 28.9464 19.119 29.7975 17.7495 29.7975C16.2318 29.7975 15.1584 28.441 14.2088 27.176C12.9753 25.5204 11.9268 22.9222 11.8897 20.4275C11.8648 19.1055 12.1368 17.806 12.8272 16.7022C13.8017 15.1613 15.5414 14.1153 17.4413 14.0808C18.8969 14.0351 20.1925 15.0121 21.0809 15.0121C21.9322 15.0121 23.5239 14.0808 25.3248 14.0808C26.1021 14.0815 28.175 14.2997 29.4584 16.1391ZM20.9577 13.8168C20.6986 12.6096 21.414 11.4024 22.0803 10.6323C22.9316 9.70096 24.2763 9.06885 25.4358 9.06885C25.5099 10.2761 25.0407 11.4601 24.2022 12.3224C23.4499 13.2537 22.1543 13.9548 20.9577 13.8168Z" fill="white"/>
</svg>
