<svg width="20" height="20" viewBox="0 0 20 20" fill="none" xmlns="http://www.w3.org/2000/svg">
<g id="vuesax/linear/call-calling">
<g id="call-calling">
<g id="call-calling_2">
<path id="Vector" d="M18.308 15.2752C18.308 15.5752 18.2413 15.8835 18.0997 16.1835C17.958 16.4835 17.7747 16.7668 17.533 17.0335C17.1247 17.4835 16.6747 17.8085 16.1664 18.0168C15.6664 18.2252 15.1247 18.3335 14.5414 18.3335C13.6914 18.3335 12.7831 18.1335 11.8247 17.7252C10.8664 17.3168 9.90809 16.7668 8.9581 16.0752C7.99977 15.3752 7.09145 14.6002 6.22479 13.7419C5.36647 12.8752 4.59147 11.9669 3.89981 11.0169C3.21649 10.0669 2.66649 9.11692 2.2665 8.17526C1.8665 7.22527 1.6665 6.31695 1.6665 5.45029C1.6665 4.88363 1.7665 4.34197 1.9665 3.84197C2.1665 3.33364 2.48316 2.86698 2.92482 2.45032C3.45815 1.92532 4.04148 1.66699 4.65814 1.66699C4.89147 1.66699 5.1248 1.71699 5.33313 1.81699C5.5498 1.91699 5.74146 2.06699 5.89146 2.28365L7.82478 5.00863C7.97477 5.21696 8.08311 5.40862 8.15811 5.59195C8.2331 5.76695 8.27477 5.94195 8.27477 6.10028C8.27477 6.30028 8.21644 6.50028 8.09977 6.69194C7.99144 6.88361 7.83311 7.0836 7.63311 7.2836L6.99978 7.94193C6.90812 8.0336 6.86645 8.14193 6.86645 8.27526C6.86645 8.34193 6.87479 8.40026 6.89145 8.46692C6.91645 8.53359 6.94145 8.58359 6.95812 8.63359C7.10812 8.90859 7.36645 9.26692 7.73311 9.70025C8.10811 10.1336 8.5081 10.5752 8.94143 11.0169C9.39143 11.4586 9.82476 11.8669 10.2664 12.2419C10.6997 12.6085 11.0581 12.8585 11.3414 13.0085C11.3831 13.0252 11.4331 13.0502 11.4914 13.0752C11.5581 13.1002 11.6247 13.1085 11.6997 13.1085C11.8414 13.1085 11.9497 13.0585 12.0414 12.9669L12.6747 12.3419C12.8831 12.1336 13.0831 11.9752 13.2747 11.8752C13.4664 11.7586 13.658 11.7002 13.8664 11.7002C14.0247 11.7002 14.1914 11.7336 14.3747 11.8086C14.558 11.8836 14.7497 11.9919 14.958 12.1336L17.7163 14.0919C17.933 14.2419 18.083 14.4169 18.1747 14.6252C18.258 14.8335 18.308 15.0419 18.308 15.2752Z" stroke="#F05A27" stroke-width="1.24999" stroke-miterlimit="10"/>
<path id="Vector_2" d="M15.4161 7.50062C15.4161 7.00063 15.0245 6.23397 14.4412 5.60897C13.9078 5.03398 13.1995 4.58398 12.4995 4.58398" stroke="#F05A27" stroke-width="1.24999" stroke-linecap="round" stroke-linejoin="round"/>
<path id="Vector_3" d="M18.3328 7.50027C18.3328 4.2753 15.7245 1.66699 12.4995 1.66699" stroke="#F05A27" stroke-width="1.24999" stroke-linecap="round" stroke-linejoin="round"/>
</g>
</g>
</g>
</svg>
