<svg width="24" height="24" viewBox="0 0 24 24" fill="none" xmlns="http://www.w3.org/2000/svg">
<g id="vuesax/outline/document-download">
<g id="document-download">
<g id="Vector">
<mask id="path-1-inside-1_13443_567" fill="white">
<path d="M9 17.75C8.9 17.75 8.81 17.73 8.71 17.69C8.43 17.58 8.25 17.3 8.25 17V11C8.25 10.59 8.59 10.25 9 10.25C9.41 10.25 9.75 10.59 9.75 11V15.19L10.47 14.47C10.76 14.18 11.24 14.18 11.53 14.47C11.82 14.76 11.82 15.24 11.53 15.53L9.53 17.53C9.39 17.67 9.19 17.75 9 17.75Z"/>
</mask>
<path d="M9 17.75C8.9 17.75 8.81 17.73 8.71 17.69C8.43 17.58 8.25 17.3 8.25 17V11C8.25 10.59 8.59 10.25 9 10.25C9.41 10.25 9.75 10.59 9.75 11V15.19L10.47 14.47C10.76 14.18 11.24 14.18 11.53 14.47C11.82 14.76 11.82 15.24 11.53 15.53L9.53 17.53C9.39 17.67 9.19 17.75 9 17.75Z" fill="#F05A27"/>
<path d="M8.71 17.69L9.2671 16.2973L9.25848 16.2939L8.71 17.69ZM9.75 15.19H8.25V18.8113L10.8107 16.2507L9.75 15.19ZM10.47 14.47L11.5307 15.5307L11.5307 15.5307L10.47 14.47ZM11.53 15.53L10.4693 14.4693L10.4693 14.4693L11.53 15.53ZM9.53 17.53L10.5907 18.5907H10.5907L9.53 17.53ZM9 16.25C9.05339 16.25 9.10946 16.2557 9.16401 16.2672C9.21646 16.2782 9.25261 16.2915 9.26709 16.2973L8.15291 19.0827C8.39603 19.18 8.67563 19.25 9 19.25V16.25ZM9.25848 16.2939C9.58593 16.4225 9.75 16.72 9.75 17H6.75C6.75 17.88 7.27407 18.7375 8.16152 19.0861L9.25848 16.2939ZM9.75 17V11H6.75V17H9.75ZM9.75 11C9.75 11.4184 9.41843 11.75 9 11.75V8.75C7.76157 8.75 6.75 9.76157 6.75 11H9.75ZM9 11.75C8.58157 11.75 8.25 11.4184 8.25 11H11.25C11.25 9.76157 10.2384 8.75 9 8.75V11.75ZM8.25 11V15.19H11.25V11H8.25ZM10.8107 16.2507L11.5307 15.5307L9.40934 13.4093L8.68934 14.1293L10.8107 16.2507ZM11.5307 15.5307C11.2349 15.8264 10.7651 15.8264 10.4693 15.5307L12.5907 13.4093C11.7149 12.5336 10.2851 12.5336 9.40934 13.4093L11.5307 15.5307ZM10.4693 15.5307C10.1736 15.2349 10.1736 14.7651 10.4693 14.4693L12.5907 16.5907C13.4664 15.7149 13.4664 14.2851 12.5907 13.4093L10.4693 15.5307ZM10.4693 14.4693L8.46934 16.4693L10.5907 18.5907L12.5907 16.5907L10.4693 14.4693ZM8.46934 16.4693C8.54906 16.3896 8.6341 16.3378 8.71358 16.3051C8.79255 16.2726 8.88819 16.25 9 16.25V19.25C9.58178 19.25 10.1651 19.0162 10.5907 18.5907L8.46934 16.4693Z" fill="#F05A27" mask="url(#path-1-inside-1_13443_567)"/>
</g>
<path id="Vector_2" d="M8.99994 17.7504C8.80994 17.7504 8.61994 17.6804 8.46994 17.5304L6.46994 15.5304C6.17994 15.2404 6.17994 14.7604 6.46994 14.4704C6.75994 14.1804 7.23994 14.1804 7.52994 14.4704L9.52994 16.4704C9.81994 16.7604 9.81994 17.2404 9.52994 17.5304C9.37994 17.6804 9.18994 17.7504 8.99994 17.7504Z" fill="#F05A27"/>
<path id="Vector_3" d="M15 22.75H9C3.57 22.75 1.25 20.43 1.25 15V9C1.25 3.57 3.57 1.25 9 1.25H14C14.41 1.25 14.75 1.59 14.75 2C14.75 2.41 14.41 2.75 14 2.75H9C4.39 2.75 2.75 4.39 2.75 9V15C2.75 19.61 4.39 21.25 9 21.25H15C19.61 21.25 21.25 19.61 21.25 15V10C21.25 9.59 21.59 9.25 22 9.25C22.41 9.25 22.75 9.59 22.75 10V15C22.75 20.43 20.43 22.75 15 22.75Z" fill="#F05A27"/>
<path id="Vector_4" d="M22 10.7505H18C14.58 10.7505 13.25 9.42048 13.25 6.00048V2.00048C13.25 1.70048 13.43 1.42048 13.71 1.31048C13.99 1.19048 14.31 1.26048 14.53 1.47048L22.53 9.47048C22.74 9.68048 22.81 10.0105 22.69 10.2905C22.57 10.5705 22.3 10.7505 22 10.7505ZM14.75 3.81048V6.00048C14.75 8.58048 15.42 9.25048 18 9.25048H20.19L14.75 3.81048Z" fill="#F05A27"/>
</g>
</g>
</svg>
