<svg width="24" height="24" viewBox="0 0 24 24" fill="none" xmlns="http://www.w3.org/2000/svg">
<g id="vuesax/outline/filter-search">
<g id="filter-search">
<path id="Vector" d="M11.6586 21.8674C11.7676 21.8254 11.8738 21.7738 11.9757 21.7127L11.9857 21.7067L11.9954 21.7004L13.3853 20.8069C13.5034 20.7353 13.6081 20.6455 13.6998 20.5478C13.6005 20.6545 13.4987 20.739 13.4013 20.798L13.3916 20.8039L13.3822 20.81L12.0038 21.7025C11.8928 21.7683 11.7772 21.8233 11.6586 21.8674ZM14.0311 20.0795C14.0268 20.0874 14.0225 20.0953 14.0182 20.1032C14.0291 20.0834 14.0395 20.0638 14.0494 20.0447C14.1119 19.9242 14.1706 19.7873 14.2164 19.6419C14.1706 19.7881 14.1085 19.9361 14.0311 20.0795ZM3.56358 7.5025C3.61264 7.61252 3.66962 7.72666 3.73417 7.84033C3.6713 7.72992 3.61252 7.61363 3.55945 7.49366C3.53696 7.44281 3.51594 7.39229 3.49638 7.34231C3.51799 7.39726 3.54054 7.45083 3.56358 7.5025ZM20.358 7.54467C20.184 7.92449 19.9684 8.25024 19.7704 8.47301C19.9966 8.21687 20.2011 7.88351 20.3545 7.55149C20.3829 7.4899 20.4108 7.42583 20.4375 7.35979C20.4126 7.42154 20.3861 7.48323 20.358 7.54467ZM3.2998 4.13956C3.2998 3.14737 3.90026 2.36718 4.7222 2.11011C3.86863 2.37888 3.2998 3.21129 3.2998 4.13956ZM18.6598 2.01953C19.7756 2.01953 20.6798 2.92376 20.6798 4.03955C20.6798 2.92534 19.774 2.01953 18.6598 2.01953Z" fill="#5A5D61" stroke="#5A5D61" stroke-width="1.5"/>
<path id="Vector_2" d="M16.0701 17.2701C13.8901 17.2701 12.1201 15.5001 12.1201 13.3201C12.1201 11.1401 13.8901 9.37012 16.0701 9.37012C18.2501 9.37012 20.0201 11.1401 20.0201 13.3201C20.0201 15.5001 18.2501 17.2701 16.0701 17.2701ZM16.0701 10.8701C14.7201 10.8701 13.6201 11.9701 13.6201 13.3201C13.6201 14.6701 14.7201 15.7701 16.0701 15.7701C17.4201 15.7701 18.5201 14.6701 18.5201 13.3201C18.5201 11.9701 17.4201 10.8701 16.0701 10.8701Z" fill="#5A5D61"/>
<path id="Vector_3" d="M19.87 17.8696C19.68 17.8696 19.4901 17.7996 19.3401 17.6496L18.3401 16.6496C18.0501 16.3596 18.0501 15.8796 18.3401 15.5896C18.6301 15.2996 19.1101 15.2996 19.4001 15.5896L20.4001 16.5896C20.6901 16.8796 20.6901 17.3596 20.4001 17.6496C20.2601 17.7896 20.06 17.8696 19.87 17.8696Z" fill="#5A5D61"/>
</g>
</g>
</svg>
