<svg width="42" height="42" viewBox="0 0 42 42" fill="none" xmlns="http://www.w3.org/2000/svg">
<path d="M39.1819 21.1314C39.1819 19.6401 39.0585 18.5519 38.7912 17.4233H21.4146V24.1543H31.6143C31.4087 25.8271 30.2982 28.3462 27.8305 30.0389L27.7959 30.2643L33.2901 34.4354L33.6707 34.4726C37.1666 31.3086 39.1819 26.6533 39.1819 21.1314Z" fill="#4285F4"/>
<path d="M21.4134 38.8664C26.4104 38.8664 30.6054 37.2541 33.6696 34.4731L27.8294 30.0393C26.2665 31.1074 24.1689 31.8531 21.4134 31.8531C16.5192 31.8531 12.3653 28.6891 10.8846 24.3159L10.6675 24.334L4.95459 28.6669L4.87988 28.8704C7.92333 34.7954 14.1748 38.8664 21.4134 38.8664Z" fill="#34A853"/>
<path d="M10.8855 24.3158C10.4948 23.1873 10.2687 21.978 10.2687 20.7286C10.2687 19.479 10.4948 18.2699 10.865 17.1414L10.8546 16.901L5.0701 12.4985L4.88084 12.5868C3.62649 15.0454 2.90674 17.8064 2.90674 20.7286C2.90674 23.6507 3.62649 26.4116 4.88084 28.8703L10.8855 24.3158Z" fill="#FBBC05"/>
<path d="M21.4135 9.60445C24.8888 9.60445 27.2331 11.0756 28.5698 12.305L33.7931 7.30707C30.5852 4.38492 26.4105 2.59131 21.4135 2.59131C14.1749 2.59131 7.92335 6.66215 4.87988 12.587L10.864 17.1416C12.3653 12.7685 16.5193 9.60445 21.4135 9.60445Z" fill="#EB4335"/>
</svg>
