<svg width="25" height="24" viewBox="0 0 25 24" fill="none" xmlns="http://www.w3.org/2000/svg">
<g id="vuesax/bold/home">
<g id="home">
<path id="Vector" d="M21.3598 8.36985L14.4298 2.82985C13.3598 1.96985 11.6298 1.96985 10.5698 2.81985L3.63978 8.36985C2.85978 8.98985 2.35978 10.2998 2.52978 11.2798L3.85978 19.2398C4.09978 20.6598 5.45978 21.8098 6.89978 21.8098H18.0998C19.5298 21.8098 20.8998 20.6498 21.1398 19.2398L22.4698 11.2798C22.6298 10.2998 22.1298 8.98985 21.3598 8.36985ZM12.4998 15.4998C11.1198 15.4998 9.99978 14.3798 9.99978 12.9998C9.99978 11.6198 11.1198 10.4998 12.4998 10.4998C13.8798 10.4998 14.9998 11.6198 14.9998 12.9998C14.9998 14.3798 13.8798 15.4998 12.4998 15.4998Z" fill="#F05A27"/>
</g>
</g>
</svg>
