<svg width="20" height="20" viewBox="0 0 20 20" fill="none" xmlns="http://www.w3.org/2000/svg">
<g id="vuesax/linear/money-add">
<path id="Vector" d="M9.99982 12.0836C11.1504 12.0836 12.0831 11.1509 12.0831 10.0003C12.0831 8.84972 11.1504 7.91699 9.99982 7.91699C8.84923 7.91699 7.9165 8.84972 7.9165 10.0003C7.9165 11.1509 8.84923 12.0836 9.99982 12.0836Z" stroke="#F05A27" stroke-width="1.24999" stroke-miterlimit="10" stroke-linecap="round" stroke-linejoin="round"/>
<path id="Vector_2" d="M15.4165 7.91699V12.0836" stroke="#F05A27" stroke-width="1.24999" stroke-miterlimit="10" stroke-linecap="round" stroke-linejoin="round"/>
<g id="Group">
<path id="Vector_3" d="M7.5001 15.0003C7.5001 15.6253 7.32511 16.2169 7.01678 16.7169C6.44178 17.6836 5.38345 18.3336 4.1668 18.3336C2.95014 18.3336 1.89181 17.6836 1.31681 16.7169C1.00848 16.2169 0.833496 15.6253 0.833496 15.0003C0.833496 13.1586 2.32515 11.667 4.1668 11.667C6.00844 11.667 7.5001 13.1586 7.5001 15.0003Z" stroke="#F05A27" stroke-width="1.24999" stroke-miterlimit="10" stroke-linecap="round" stroke-linejoin="round"/>
<g id="Group_2">
<path id="Vector_4" d="M5.40956 14.9834H2.92627" stroke="#F05A27" stroke-width="1.24999" stroke-miterlimit="10" stroke-linecap="round" stroke-linejoin="round"/>
<path id="Vector_5" d="M4.1665 13.7666V16.2582" stroke="#F05A27" stroke-width="1.24999" stroke-miterlimit="10" stroke-linecap="round" stroke-linejoin="round"/>
</g>
</g>
<path id="Vector_6" d="M1.6665 12.7496V7.49963C1.6665 4.583 3.33315 3.33301 5.83313 3.33301H14.1664C16.6664 3.33301 18.333 4.583 18.333 7.49963V12.4996C18.333 15.4162 16.6664 16.6662 14.1664 16.6662H7.08312" stroke="#F05A27" stroke-width="1.24999" stroke-miterlimit="10" stroke-linecap="round" stroke-linejoin="round"/>
</g>
</svg>
