<svg width="20" height="20" viewBox="0 0 20 20" fill="none" xmlns="http://www.w3.org/2000/svg">
<g id="vuesax/linear/moneys">
<g id="Group">
<path id="Vector" d="M16.0835 6.60019V10.8918C16.0835 13.4585 14.6168 14.5584 12.4169 14.5584H5.09192C4.71692 14.5584 4.35859 14.5252 4.02526 14.4502C3.81693 14.4168 3.61694 14.3585 3.43361 14.2918C2.18362 13.8252 1.42529 12.7418 1.42529 10.8918V6.60019C1.42529 4.03355 2.89194 2.93359 5.09192 2.93359H12.4169C14.2835 2.93359 15.6252 3.72525 15.9835 5.53356C16.0418 5.86689 16.0835 6.20853 16.0835 6.60019Z" stroke="#F05A27" stroke-width="1.24999" stroke-miterlimit="10" stroke-linecap="round" stroke-linejoin="round"/>
<path id="Vector_2" d="M18.5846 9.09981V13.3915C18.5846 15.9581 17.1179 17.0581 14.9179 17.0581H7.593C6.97634 17.0581 6.41802 16.9748 5.93469 16.7914C4.94303 16.4248 4.26803 15.6664 4.02637 14.4498C4.3597 14.5248 4.71803 14.5581 5.09302 14.5581H12.418C14.6179 14.5581 16.0846 13.4581 16.0846 10.8915V6.59983C16.0846 6.20817 16.0513 5.8582 15.9846 5.5332C17.5679 5.86653 18.5846 6.98316 18.5846 9.09981Z" stroke="#F05A27" stroke-width="1.24999" stroke-miterlimit="10" stroke-linecap="round" stroke-linejoin="round"/>
<path id="Vector_3" d="M8.74882 10.9498C9.96383 10.9498 10.9488 9.96481 10.9488 8.74979C10.9488 7.53478 9.96383 6.5498 8.74882 6.5498C7.5338 6.5498 6.54883 7.53478 6.54883 8.74979C6.54883 9.96481 7.5338 10.9498 8.74882 10.9498Z" stroke="#F05A27" stroke-width="1.24999" stroke-miterlimit="10" stroke-linecap="round" stroke-linejoin="round"/>
<path id="Vector_4" d="M3.9834 6.91699V10.5836" stroke="#F05A27" stroke-width="1.24999" stroke-miterlimit="10" stroke-linecap="round" stroke-linejoin="round"/>
<path id="Vector_5" d="M13.5181 6.91699V10.5836" stroke="#F05A27" stroke-width="1.24999" stroke-miterlimit="10" stroke-linecap="round" stroke-linejoin="round"/>
</g>
</g>
</svg>
