<svg width="20" height="20" viewBox="0 0 20 20" fill="none" xmlns="http://www.w3.org/2000/svg">
<g id="vuesax/linear/receipt-square">
<g id="receipt-square">
<path id="Vector" d="M7.49978 18.3335H12.4997C16.6664 18.3335 18.333 16.6668 18.333 12.5002V7.50027C18.333 3.33364 16.6664 1.66699 12.4997 1.66699H7.49978C3.33315 1.66699 1.6665 3.33364 1.6665 7.50027V12.5002C1.6665 16.6668 3.33315 18.3335 7.49978 18.3335Z" stroke="#F05A27" stroke-width="1.24999" stroke-linecap="round" stroke-linejoin="round"/>
<path id="Vector_2" d="M7.41685 13.775C7.81685 13.3416 8.43352 13.375 8.78351 13.85L9.28351 14.5166C9.67518 15.0416 10.3251 15.0416 10.7168 14.5166L11.2085 13.8583C11.5585 13.3916 12.1751 13.3583 12.5751 13.7833C13.4501 14.7166 14.1584 14.4083 14.1584 13.1V7.57503C14.1584 5.60005 13.6918 5.1084 11.8418 5.1084H8.14184C6.29186 5.1084 5.8252 5.60005 5.8252 7.57503V13.1C5.83353 14.3916 6.55019 14.7 7.41685 13.775Z" stroke="#F05A27" stroke-width="1.24999" stroke-linecap="round" stroke-linejoin="round"/>
</g>
</g>
</svg>
