<svg width="20" height="20" viewBox="0 0 20 20" fill="none" xmlns="http://www.w3.org/2000/svg">
<g id="vuesax/linear/receipt-item">
<path id="Vector" d="M18.333 5.00029V7.01694C18.333 8.33359 17.4996 9.16692 16.183 9.16692H13.333V3.34197C13.333 2.41698 14.0913 1.66699 15.0163 1.66699C15.9246 1.67533 16.758 2.04199 17.358 2.64198C17.958 3.25031 18.333 4.08363 18.333 5.00029Z" stroke="#F05A27" stroke-width="1.24999" stroke-miterlimit="10" stroke-linecap="round" stroke-linejoin="round"/>
<path id="Vector_2" d="M1.6665 5.83362V17.5002C1.6665 18.1918 2.44983 18.5835 2.99982 18.1668L4.42481 17.1002C4.75814 16.8502 5.2248 16.8835 5.5248 17.1835L6.90812 18.5752C7.23311 18.9002 7.76644 18.9002 8.09144 18.5752L9.49143 17.1752C9.78309 16.8835 10.2498 16.8502 10.5747 17.1002L11.9997 18.1668C12.5497 18.5752 13.3331 18.1835 13.3331 17.5002V3.33364C13.3331 2.41698 14.083 1.66699 14.9997 1.66699H5.83313H4.9998C2.49983 1.66699 1.6665 3.15864 1.6665 5.00029V5.83362Z" stroke="#F05A27" stroke-width="1.24999" stroke-miterlimit="10" stroke-linecap="round" stroke-linejoin="round"/>
<path id="Vector_3" d="M7.5 10.8418H9.99997" stroke="#F05A27" stroke-width="1.24999" stroke-linecap="round" stroke-linejoin="round"/>
<path id="Vector_4" d="M7.5 7.50781H9.99997" stroke="#F05A27" stroke-width="1.24999" stroke-linecap="round" stroke-linejoin="round"/>
<path id="Vector_5" d="M4.99658 10.833H5.00407" stroke="#F05A27" stroke-width="1.24999" stroke-linecap="round" stroke-linejoin="round"/>
<path id="Vector_6" d="M4.99658 7.5H5.00407" stroke="#F05A27" stroke-width="1.24999" stroke-linecap="round" stroke-linejoin="round"/>
</g>
</svg>
