<svg width="24" height="24" viewBox="0 0 24 24" fill="none" xmlns="http://www.w3.org/2000/svg">
<g id="vuesax/outline/receipt-search">
<g id="receipt-search">
<path id="Vector" d="M6.74539 19.6949C6.74814 19.692 6.7509 19.6891 6.75366 19.6862L6.75231 19.6876C6.69284 19.7512 6.63447 19.8112 6.57723 19.8677C6.63262 19.8129 6.68867 19.7553 6.74539 19.6949ZM4.50465 20.7215C4.58958 20.7538 4.6759 20.7734 4.76226 20.7825C4.6494 20.7716 4.55808 20.7457 4.48843 20.7197C4.38647 20.6795 4.23808 20.5992 4.08792 20.4314C4.18942 20.543 4.32595 20.654 4.50465 20.7215ZM3.52002 18.3C3.52002 18.8432 3.5823 19.3079 3.69395 19.6794C3.59256 19.3456 3.52002 18.898 3.52002 18.3ZM7.01782 19.4508C7.37447 19.182 7.77855 19.0576 8.17955 19.0789C8.68087 19.106 9.18176 19.3732 9.52888 19.8385C9.20702 19.4101 8.73746 19.1181 8.18994 19.0816C7.74437 19.0519 7.34087 19.208 7.01782 19.4508ZM9.53164 19.8421L10.5495 21.1893C10.5482 21.1896 10.5452 21.19 10.54 21.19L9.53164 19.8421ZM4.4521 3.03181C4.37999 3.10972 4.31362 3.19132 4.2525 3.27638C4.32301 3.17356 4.39845 3.0802 4.47878 2.99524C4.62333 2.84234 4.79362 2.7064 4.99624 2.58788C4.79782 2.70902 4.61551 2.85525 4.4521 3.03181ZM19.578 3.03181C19.4145 2.85524 19.2322 2.70902 19.0338 2.58787C19.2364 2.70639 19.4067 2.84233 19.5513 2.99524C19.6316 3.0802 19.7071 3.17357 19.7776 3.27638C19.7164 3.19132 19.6501 3.10972 19.578 3.03181Z" fill="#5A5D61" stroke="#5A5D61" stroke-width="1.5"/>
<path id="Vector_2" d="M18.2 22.15C16.02 22.15 14.25 20.38 14.25 18.2C14.25 16.02 16.02 14.25 18.2 14.25C20.38 14.25 22.15 16.02 22.15 18.2C22.15 20.38 20.38 22.15 18.2 22.15ZM18.2 15.75C16.85 15.75 15.75 16.85 15.75 18.2C15.75 19.55 16.85 20.65 18.2 20.65C19.55 20.65 20.65 19.55 20.65 18.2C20.65 16.85 19.55 15.75 18.2 15.75Z" fill="#5A5D61"/>
<path id="Vector_3" d="M21.9999 22.7504C21.8099 22.7504 21.6199 22.6804 21.4699 22.5304L20.4699 21.5304C20.1799 21.2404 20.1799 20.7604 20.4699 20.4704C20.7599 20.1804 21.2399 20.1804 21.5299 20.4704L22.5299 21.4704C22.8199 21.7604 22.8199 22.2404 22.5299 22.5304C22.3799 22.6804 22.1899 22.7504 21.9999 22.7504Z" fill="#5A5D61"/>
<path id="Vector_4" d="M16 7.75H8C7.59 7.75 7.25 7.41 7.25 7C7.25 6.59 7.59 6.25 8 6.25H16C16.41 6.25 16.75 6.59 16.75 7C16.75 7.41 16.41 7.75 16 7.75Z" fill="#5A5D61"/>
<path id="Vector_5" d="M15 11.75H9C8.59 11.75 8.25 11.41 8.25 11C8.25 10.59 8.59 10.25 9 10.25H15C15.41 10.25 15.75 10.59 15.75 11C15.75 11.41 15.41 11.75 15 11.75Z" fill="#5A5D61"/>
</g>
</g>
</svg>
