<svg width="20" height="20" viewBox="0 0 20 20" fill="none" xmlns="http://www.w3.org/2000/svg">
<g id="vuesax/linear/receipt-2">
<g id="receipt-2">
<path id="Vector" d="M5.60814 16.4168C6.29147 15.6835 7.33313 15.7419 7.93312 16.5418L8.77478 17.6668C9.44977 18.5585 10.5414 18.5585 11.2164 17.6668L12.0581 16.5418C12.6581 15.7419 13.6997 15.6835 14.3831 16.4168C15.8664 18.0002 17.0747 17.4752 17.0747 15.2585V5.86695C17.083 2.50865 16.2997 1.66699 13.1497 1.66699H6.8498C3.69983 1.66699 2.9165 2.50865 2.9165 5.86695V15.2502C2.9165 17.4752 4.13316 17.9918 5.60814 16.4168Z" stroke="#F05A27" stroke-width="1.24999" stroke-linecap="round" stroke-linejoin="round"/>
<path id="Vector_2" d="M6.74656 9.16666H6.75404" stroke="#F05A27" stroke-width="1.24999" stroke-linecap="round" stroke-linejoin="round"/>
<path id="Vector_3" d="M9.08203 9.16699H13.6653" stroke="#F05A27" stroke-width="1.24999" stroke-linecap="round" stroke-linejoin="round"/>
<path id="Vector_4" d="M6.74656 5.83365H6.75404" stroke="#F05A27" stroke-width="1.24999" stroke-linecap="round" stroke-linejoin="round"/>
<path id="Vector_5" d="M9.08203 5.83301H13.6653" stroke="#F05A27" stroke-width="1.24999" stroke-linecap="round" stroke-linejoin="round"/>
</g>
</g>
</svg>
