<svg width="25" height="24" viewBox="0 0 25 24" fill="none" xmlns="http://www.w3.org/2000/svg">
<g id="vuesax/outline/setting-2">
<g id="setting-2">
<path id="Vector" d="M12.5 15.75C10.43 15.75 8.75 14.07 8.75 12C8.75 9.93 10.43 8.25 12.5 8.25C14.57 8.25 16.25 9.93 16.25 12C16.25 14.07 14.57 15.75 12.5 15.75ZM12.5 9.75C11.26 9.75 10.25 10.76 10.25 12C10.25 13.24 11.26 14.25 12.5 14.25C13.74 14.25 14.75 13.24 14.75 12C14.75 10.76 13.74 9.75 12.5 9.75Z" fill="#5A5D61"/>
<path id="Vector_2" d="M15.71 22.1903C15.5 22.1903 15.29 22.1603 15.08 22.1103C14.46 21.9403 13.94 21.5503 13.61 21.0003L13.49 20.8003C12.9 19.7803 12.09 19.7803 11.5 20.8003L11.39 20.9903C11.06 21.5503 10.54 21.9503 9.92 22.1103C9.29 22.2803 8.64 22.1903 8.09 21.8603L6.37 20.8703C5.76 20.5203 5.32 19.9503 5.13 19.2603C4.95 18.5703 5.04 17.8603 5.39 17.2503C5.68 16.7403 5.76 16.2803 5.59 15.9903C5.42 15.7003 4.99 15.5303 4.4 15.5303C2.94 15.5303 1.75 14.3403 1.75 12.8803V11.1203C1.75 9.66029 2.94 8.47029 4.4 8.47029C4.99 8.47029 5.42 8.30029 5.59 8.01029C5.76 7.72029 5.69 7.26029 5.39 6.75029C5.04 6.14029 4.95 5.42029 5.13 4.74029C5.31 4.05029 5.75 3.48029 6.37 3.13029L8.1 2.14029C9.23 1.47029 10.72 1.86029 11.4 3.01029L11.52 3.21029C12.11 4.23029 12.92 4.23029 13.51 3.21029L13.62 3.02029C14.3 1.86029 15.79 1.47029 16.93 2.15029L18.65 3.14029C19.26 3.49029 19.7 4.06029 19.89 4.75029C20.07 5.44029 19.98 6.15029 19.63 6.76029C19.34 7.27029 19.26 7.73029 19.43 8.02029C19.6 8.31029 20.03 8.48029 20.62 8.48029C22.08 8.48029 23.27 9.67029 23.27 11.1303V12.8903C23.27 14.3503 22.08 15.5403 20.62 15.5403C20.03 15.5403 19.6 15.7103 19.43 16.0003C19.26 16.2903 19.33 16.7503 19.63 17.2603C19.98 17.8703 20.08 18.5903 19.89 19.2703C19.71 19.9603 19.27 20.5303 18.65 20.8803L16.92 21.8703C16.54 22.0803 16.13 22.1903 15.71 22.1903ZM12.5 18.4903C13.39 18.4903 14.22 19.0503 14.79 20.0403L14.9 20.2303C15.02 20.4403 15.22 20.5903 15.46 20.6503C15.7 20.7103 15.94 20.6803 16.14 20.5603L17.87 19.5603C18.13 19.4103 18.33 19.1603 18.41 18.8603C18.49 18.5603 18.45 18.2503 18.3 17.9903C17.73 17.0103 17.66 16.0003 18.1 15.2303C18.54 14.4603 19.45 14.0203 20.59 14.0203C21.23 14.0203 21.74 13.5103 21.74 12.8703V11.1103C21.74 10.4803 21.23 9.96029 20.59 9.96029C19.45 9.96029 18.54 9.52029 18.1 8.75029C17.66 7.98029 17.73 6.97029 18.3 5.99029C18.45 5.73029 18.49 5.42029 18.41 5.12029C18.33 4.82029 18.14 4.58029 17.88 4.42029L16.15 3.43029C15.72 3.17029 15.15 3.32029 14.89 3.76029L14.78 3.95029C14.21 4.94029 13.38 5.50029 12.49 5.50029C11.6 5.50029 10.77 4.94029 10.2 3.95029L10.09 3.75029C9.84 3.33029 9.28 3.18029 8.85 3.43029L7.12 4.43029C6.86 4.58029 6.66 4.83029 6.58 5.13029C6.5 5.43029 6.54 5.74029 6.69 6.00029C7.26 6.98029 7.33 7.99029 6.89 8.76029C6.45 9.53029 5.54 9.97029 4.4 9.97029C3.76 9.97029 3.25 10.4803 3.25 11.1203V12.8803C3.25 13.5103 3.76 14.0303 4.4 14.0303C5.54 14.0303 6.45 14.4703 6.89 15.2403C7.33 16.0103 7.26 17.0203 6.69 18.0003C6.54 18.2603 6.5 18.5703 6.58 18.8703C6.66 19.1703 6.85 19.4103 7.11 19.5703L8.84 20.5603C9.05 20.6903 9.3 20.7203 9.53 20.6603C9.77 20.6003 9.97 20.4403 10.1 20.2303L10.21 20.0403C10.78 19.0603 11.61 18.4903 12.5 18.4903Z" fill="#5A5D61"/>
</g>
</g>
</svg>
