<svg width="20" height="20" viewBox="0 0 20 20" fill="none" xmlns="http://www.w3.org/2000/svg">
<g id="vuesax/linear/shop">
<g id="shop">
<path id="Vector" d="M2.5083 9.34961V13.0912C2.5083 16.8329 4.00829 18.3329 7.74991 18.3329H12.2415C15.9832 18.3329 17.4831 16.8329 17.4831 13.0912V9.34961" stroke="#F05A27" stroke-width="1.24999" stroke-linecap="round" stroke-linejoin="round"/>
<path id="Vector_2" d="M10.0002 10.0002C11.5252 10.0002 12.6502 8.75859 12.5002 7.2336L11.9502 1.66699H8.05856L7.50024 7.2336C7.35024 8.75859 8.47523 10.0002 10.0002 10.0002Z" stroke="#F05A27" stroke-width="1.24999" stroke-linecap="round" stroke-linejoin="round"/>
<path id="Vector_3" d="M15.2581 10.0002C16.9415 10.0002 18.1748 8.63359 18.0081 6.95861L17.7748 4.66696C17.4748 2.50032 16.6415 1.66699 14.4581 1.66699H11.9165L12.4998 7.5086C12.6415 8.88359 13.8832 10.0002 15.2581 10.0002Z" stroke="#F05A27" stroke-width="1.24999" stroke-linecap="round" stroke-linejoin="round"/>
<path id="Vector_4" d="M4.70012 10.0002C6.0751 10.0002 7.31676 8.88359 7.45009 7.5086L7.63342 5.66695L8.03342 1.66699H5.49178C3.30847 1.66699 2.47514 2.50032 2.17514 4.66696L1.95015 6.95861C1.78348 8.63359 3.0168 10.0002 4.70012 10.0002Z" stroke="#F05A27" stroke-width="1.24999" stroke-linecap="round" stroke-linejoin="round"/>
<path id="Vector_5" d="M9.99982 14.167C8.60816 14.167 7.9165 14.8587 7.9165 16.2503V18.3336H12.0831V16.2503C12.0831 14.8587 11.3915 14.167 9.99982 14.167Z" stroke="#F05A27" stroke-width="1.24999" stroke-linecap="round" stroke-linejoin="round"/>
</g>
</g>
</svg>
