<svg width="59" height="54" viewBox="0 0 59 54" fill="none" xmlns="http://www.w3.org/2000/svg">
<g id="undraw_receipt_re_fre3 1" clip-path="url(#clip0_12895_7118)">
<path id="Vector" d="M0.32952 12.4548C0.213989 12.4873 0.116063 12.5643 0.0572257 12.6689C-0.00161169 12.7735 -0.0165575 12.8971 0.0156676 13.0127L7.58325 40.039C7.61574 40.1545 7.69274 40.2525 7.79734 40.3113C7.90194 40.3701 8.02561 40.3851 8.14121 40.3528L36.0392 32.5412C36.1547 32.5087 36.2526 32.4317 36.3114 32.3271C36.3703 32.2225 36.3852 32.0988 36.353 31.9832L28.7854 4.95696C28.7529 4.84143 28.6759 4.74351 28.5713 4.68467C28.4667 4.62583 28.3431 4.61088 28.2275 4.64311L0.32952 12.4548Z" fill="#E6E6E6"/>
<path id="Vector_2" d="M8.48999 39.0743L35.075 31.6303L27.875 5.91699L1.29004 13.361L8.48999 39.0743Z" fill="white"/>
<path id="Vector_3" d="M4.8035 16.7944C4.62613 16.844 4.553 17.1387 4.64049 17.4511C4.72798 17.7636 4.94348 17.9774 5.12085 17.9277L17.2459 14.5326C17.4232 14.4829 17.4964 14.1883 17.4089 13.8759C17.3214 13.5634 17.1059 13.3496 16.9285 13.3993L4.8035 16.7944Z" fill="#E6E6E6"/>
<path id="Vector_4" d="M5.7864 20.2817C5.60903 20.3313 5.53591 20.626 5.6234 20.9384C5.71089 21.2509 5.92638 21.4647 6.10375 21.415L18.2288 18.0199C18.4061 17.9703 18.4793 17.6756 18.3918 17.3632C18.3043 17.0507 18.0888 16.8369 17.9114 16.8866L5.7864 20.2817Z" fill="#E6E6E6"/>
<path id="Vector_5" d="M6.74979 23.7309C6.57241 23.7806 6.49929 24.0752 6.58678 24.3876C6.67427 24.7001 6.88976 24.9139 7.06714 24.8642L19.1922 21.4691C19.3695 21.4195 19.4426 21.1248 19.3552 20.8124C19.2677 20.4999 19.0522 20.2861 18.8748 20.3358L6.74979 23.7309Z" fill="#E6E6E6"/>
<path id="Vector_6" d="M7.72293 27.2177C7.54556 27.2674 7.47243 27.562 7.55992 27.8744C7.64741 28.1869 7.86291 28.4007 8.04028 28.3511L20.1653 24.9559C20.3427 24.9063 20.4158 24.6117 20.3283 24.2992C20.2408 23.9867 20.0253 23.7729 19.8479 23.8226L7.72293 27.2177Z" fill="#E6E6E6"/>
<path id="Vector_7" d="M23.0872 11.7175C23.0127 11.7383 22.943 11.7735 22.8822 11.8213C22.8213 11.869 22.7704 11.9282 22.7325 11.9956C22.6945 12.063 22.6702 12.1372 22.661 12.214C22.6517 12.2907 22.6577 12.3686 22.6785 12.4431C22.6994 12.5175 22.7347 12.5872 22.7825 12.648C22.8303 12.7088 22.8896 12.7596 22.957 12.7975C23.0244 12.8353 23.0987 12.8595 23.1755 12.8687C23.2522 12.8779 23.3301 12.8718 23.4045 12.8509L25.6712 12.2162C25.8215 12.1741 25.949 12.074 26.0255 11.938C26.102 11.802 26.1213 11.6411 26.0793 11.4908C26.0372 11.3405 25.9371 11.2131 25.8011 11.1366C25.665 11.0601 25.5042 11.0407 25.3539 11.0828L23.0872 11.7175Z" fill="#E6E6E6"/>
<path id="Vector_8" d="M24.0403 15.137C23.9658 15.1577 23.8961 15.193 23.8353 15.2407C23.7744 15.2884 23.7236 15.3476 23.6856 15.415C23.6476 15.4824 23.6233 15.5566 23.6141 15.6334C23.6048 15.7102 23.6108 15.788 23.6317 15.8625C23.6525 15.937 23.6878 16.0066 23.7356 16.0674C23.7834 16.1282 23.8427 16.179 23.9101 16.2169C23.9776 16.2548 24.0518 16.279 24.1286 16.2881C24.2054 16.2973 24.2832 16.2913 24.3577 16.2703L26.6244 15.6356C26.7747 15.5935 26.9021 15.4935 26.9786 15.3574C27.0551 15.2214 27.0745 15.0606 27.0324 14.9103C26.9903 14.76 26.8902 14.6326 26.7542 14.556C26.6182 14.4795 26.4573 14.4602 26.307 14.5023L24.0403 15.137Z" fill="#E6E6E6"/>
<path id="Vector_9" d="M25.0035 18.5574C24.9291 18.5782 24.8595 18.6135 24.7987 18.6612C24.738 18.709 24.6872 18.7682 24.6493 18.8355C24.6114 18.9029 24.5872 18.9771 24.5779 19.0538C24.5687 19.1305 24.5747 19.2083 24.5955 19.2827C24.6164 19.3571 24.6517 19.4267 24.6994 19.4875C24.7471 19.5483 24.8063 19.5991 24.8737 19.637C24.9411 19.6748 25.0152 19.6991 25.0919 19.7083C25.1687 19.7175 25.2465 19.7116 25.3209 19.6907L27.5876 19.056C27.7379 19.0139 27.8653 18.9139 27.9418 18.7779C28.0183 18.6418 28.0377 18.481 27.9956 18.3307C27.9535 18.1804 27.8534 18.053 27.7174 17.9765C27.5814 17.8999 27.4205 17.8806 27.2702 17.9227L25.0035 18.5574Z" fill="#E6E6E6"/>
<path id="Vector_10" d="M25.956 21.9766C25.8059 22.0189 25.6786 22.1189 25.6023 22.2549C25.5259 22.3909 25.5066 22.5516 25.5487 22.7018C25.5907 22.852 25.6906 22.9793 25.8265 23.0559C25.9624 23.1324 26.1231 23.1519 26.2734 23.11L28.5401 22.4753C28.6902 22.4331 28.8174 22.333 28.8938 22.197C28.9702 22.061 28.9895 21.9003 28.9474 21.7501C28.9054 21.5999 28.8054 21.4726 28.6695 21.3961C28.5336 21.3195 28.3729 21.3 28.2227 21.3419L25.956 21.9766Z" fill="#E6E6E6"/>
<path id="Vector_11" d="M26.8751 27.898C26.7802 27.9245 26.6914 27.9694 26.6139 28.0302C26.5363 28.091 26.4715 28.1665 26.4232 28.2524C26.3748 28.3382 26.3438 28.4328 26.332 28.5306C26.3203 28.6284 26.3279 28.7276 26.3544 28.8225C26.381 28.9174 26.426 29.0061 26.4869 29.0836C26.5478 29.1611 26.6233 29.2258 26.7093 29.2741C26.7952 29.3224 26.8898 29.3532 26.9876 29.3649C27.0855 29.3766 27.1846 29.3689 27.2795 29.3422L30.1678 28.5334C30.3593 28.4798 30.5216 28.3523 30.6191 28.179C30.7166 28.0056 30.7413 27.8007 30.6877 27.6092C30.634 27.4177 30.5065 27.2553 30.3332 27.1578C30.1599 27.0603 29.9549 27.0357 29.7634 27.0893L26.8751 27.898Z" fill="#F05A27"/>
<path id="Vector_12" d="M29.8396 24.9886L8.4668 30.9731L8.51999 31.1631L29.8928 25.1786L29.8396 24.9886Z" fill="#E6E6E6"/>
<path id="Vector_13" d="M51.3104 50.5218L49.5962 50.9362L47.1821 44.5217L49.712 43.9102L51.3104 50.5218Z" fill="#A0616A"/>
<path id="Vector_14" d="M46.6384 53.395L46.6268 53.347C46.4909 52.7823 46.5846 52.1868 46.8873 51.6911C47.19 51.1954 47.677 50.84 48.2414 50.7029L51.5951 49.8921L52.1215 52.0694L46.6384 53.395Z" fill="#2F2E41"/>
<path id="Vector_15" d="M43.7255 51.6952L41.962 51.6952L41.123 44.8931L43.7258 44.8932L43.7255 51.6952Z" fill="#A0616A"/>
<path id="Vector_16" d="M44.1538 53.3847L38.5127 53.3845V53.3352C38.5127 52.7542 38.7435 52.197 39.1544 51.7861C39.5652 51.3753 40.1224 51.1445 40.7034 51.1445H40.7035L44.1539 51.1447L44.1538 53.3847Z" fill="#2F2E41"/>
<path id="Vector_17" d="M41.121 49.0399L39.4087 28.6334L46.4968 27.3268L46.5248 27.3218L48.5995 28.6554L47.8774 36.1656L51.2021 47.8744L48.3314 48.6299L45.0013 37.7706L44.2393 34.4684L43.8487 38.7594L44.1386 49.3417L41.121 49.0399Z" fill="#2F2E41"/>
<path id="Vector_18" d="M39.1862 29.0966L39.1675 29.0728L41.6168 10.6306L41.62 10.6065L41.6373 10.5892C41.6734 10.5531 42.5316 9.70506 43.4143 9.70506C43.5419 9.70506 43.6632 9.70183 43.7796 9.69888C44.4551 9.68132 44.9887 9.66727 45.6228 10.3015C46.2689 10.9475 48.3769 13.3067 48.3769 16.5377C48.3769 19.665 48.6617 29.3838 48.6646 29.4816L48.6686 29.6189L48.5535 29.544C48.5251 29.5257 45.6898 27.7204 43.3119 29.3986C42.5688 29.9231 41.9012 30.107 41.3304 30.107C40.0019 30.107 39.1976 29.111 39.1862 29.0966Z" fill="#F05A27"/>
<path id="Vector_19" d="M44.7324 8.17827C46.4445 7.24235 47.0738 5.09572 46.1378 3.38362C45.2019 1.67152 43.0553 1.04231 41.3432 1.97822C39.6311 2.91414 39.0019 5.06078 39.9378 6.77288C40.8737 8.48497 43.0203 9.11419 44.7324 8.17827Z" fill="#A0616A"/>
<path id="Vector_20" d="M37.6377 33.0666C37.8049 32.9371 37.9416 32.7725 38.0382 32.5844C38.1349 32.3963 38.1891 32.1893 38.1971 31.978C38.2051 31.7667 38.1667 31.5562 38.0846 31.3613C38.0024 31.1665 37.8785 30.992 37.7217 30.8502L39.728 26.1177L37.101 26.6012L35.5985 31.0211C35.3777 31.3005 35.2671 31.6511 35.2876 32.0065C35.308 32.362 35.4582 32.6975 35.7096 32.9497C35.9609 33.2018 36.296 33.353 36.6514 33.3745C37.0068 33.3961 37.3577 33.2865 37.6377 33.0666Z" fill="#A0616A"/>
<path id="Vector_21" d="M35.6997 29.3775L36.3458 28.0135C36.3059 27.9894 36.2729 27.9553 36.2504 27.9146C35.6467 26.8685 39.2928 18.1812 39.5358 17.6049C39.4988 17.2915 39.116 13.9705 39.3959 12.851C39.7253 11.5333 40.4018 10.9191 41.6578 10.7975C43.0429 10.6674 43.4165 12.5483 43.4201 12.5674L43.4214 17.4029L41.8318 22.9692L38.2064 30.3649L35.6997 29.3775Z" fill="#F05A27"/>
<path id="Vector_22" d="M43.4891 6.41615C43.0656 6.47125 42.7461 6.03793 42.598 5.63737C42.4498 5.23681 42.3369 4.77048 41.9687 4.55411C41.4656 4.2585 40.822 4.61404 40.2467 4.51651C39.597 4.40636 39.1746 3.71784 39.1415 3.05973C39.1084 2.40162 39.3703 1.76867 39.6273 1.1619L39.717 1.91597C39.705 1.6604 39.7588 1.40602 39.8732 1.17717C39.9876 0.948321 40.1588 0.752654 40.3705 0.608887L40.2548 1.71538C40.3273 1.09549 40.9951 0.615167 41.6059 0.743626L41.5877 1.40291C42.338 1.31369 43.095 1.22434 43.8475 1.29231C44.6001 1.36029 45.358 1.5984 45.9284 2.09404C46.7816 2.83544 47.0932 4.05623 46.9886 5.18172C46.884 6.30721 46.4194 7.36452 45.9352 8.38589C45.8133 8.64287 45.6448 8.93285 45.3623 8.96559C45.1085 8.995 44.8762 8.78281 44.7973 8.53977C44.7184 8.29673 44.7569 8.03269 44.8042 7.78156C44.8756 7.4022 44.9656 7.01445 44.8984 6.63431C44.8313 6.25417 44.5578 5.87852 44.1747 5.83193C43.7915 5.78535 43.3993 6.22336 43.5836 6.56258L43.4891 6.41615Z" fill="#2F2E41"/>
<path id="Vector_23" d="M58.9565 53.385H33.5322V53.1772H58.9942L58.9565 53.385Z" fill="#3F3D56"/>
</g>
<defs>
<clipPath id="clip0_12895_7118">
<rect width="59" height="52.7857" fill="white" transform="translate(0 0.606934)"/>
</clipPath>
</defs>
</svg>
