<svg width="25" height="24" viewBox="0 0 25 24" fill="none" xmlns="http://www.w3.org/2000/svg">
<g id="vuesax/outline/sms">
<g id="sms">
<g id="Vector">
<mask id="path-1-inside-1_13443_91" fill="white">
<path d="M17.5 21.25H7.5C3.85 21.25 1.75 19.15 1.75 15.5V8.5C1.75 4.85 3.85 2.75 7.5 2.75H17.5C21.15 2.75 23.25 4.85 23.25 8.5V15.5C23.25 19.15 21.15 21.25 17.5 21.25ZM7.5 4.25C4.64 4.25 3.25 5.64 3.25 8.5V15.5C3.25 18.36 4.64 19.75 7.5 19.75H17.5C20.36 19.75 21.75 18.36 21.75 15.5V8.5C21.75 5.64 20.36 4.25 17.5 4.25H7.5Z"/>
</mask>
<path d="M17.5 21.25H7.5C3.85 21.25 1.75 19.15 1.75 15.5V8.5C1.75 4.85 3.85 2.75 7.5 2.75H17.5C21.15 2.75 23.25 4.85 23.25 8.5V15.5C23.25 19.15 21.15 21.25 17.5 21.25ZM7.5 4.25C4.64 4.25 3.25 5.64 3.25 8.5V15.5C3.25 18.36 4.64 19.75 7.5 19.75H17.5C20.36 19.75 21.75 18.36 21.75 15.5V8.5C21.75 5.64 20.36 4.25 17.5 4.25H7.5Z" fill="#292D32"/>
<path d="M17.5 19.75H7.5V22.75H17.5V19.75ZM7.5 19.75C5.95973 19.75 4.94587 19.3121 4.31691 18.6831C3.68795 18.0541 3.25 17.0403 3.25 15.5H0.25C0.25 17.6097 0.862055 19.4709 2.19559 20.8044C3.52912 22.1379 5.39027 22.75 7.5 22.75V19.75ZM3.25 15.5V8.5H0.25V15.5H3.25ZM3.25 8.5C3.25 6.95973 3.68795 5.94587 4.31691 5.31691C4.94587 4.68795 5.95973 4.25 7.5 4.25V1.25C5.39027 1.25 3.52912 1.86205 2.19559 3.19559C0.862055 4.52912 0.25 6.39027 0.25 8.5H3.25ZM7.5 4.25H17.5V1.25H7.5V4.25ZM17.5 4.25C19.0403 4.25 20.0541 4.68795 20.6831 5.31691C21.3121 5.94587 21.75 6.95973 21.75 8.5H24.75C24.75 6.39027 24.1379 4.52912 22.8044 3.19559C21.4709 1.86205 19.6097 1.25 17.5 1.25V4.25ZM21.75 8.5V15.5H24.75V8.5H21.75ZM21.75 15.5C21.75 17.0403 21.3121 18.0541 20.6831 18.6831C20.0541 19.3121 19.0403 19.75 17.5 19.75V22.75C19.6097 22.75 21.4709 22.1379 22.8044 20.8044C24.1379 19.4709 24.75 17.6097 24.75 15.5H21.75ZM7.5 2.75C5.84953 2.75 4.33268 3.151 3.24184 4.24184C2.151 5.33268 1.75 6.84953 1.75 8.5H4.75C4.75 7.29047 5.044 6.68232 5.36316 6.36316C5.68232 6.044 6.29047 5.75 7.5 5.75V2.75ZM1.75 8.5V15.5H4.75V8.5H1.75ZM1.75 15.5C1.75 17.1505 2.151 18.6673 3.24184 19.7582C4.33268 20.849 5.84953 21.25 7.5 21.25V18.25C6.29047 18.25 5.68232 17.956 5.36316 17.6368C5.044 17.3177 4.75 16.7095 4.75 15.5H1.75ZM7.5 21.25H17.5V18.25H7.5V21.25ZM17.5 21.25C19.1505 21.25 20.6673 20.849 21.7582 19.7582C22.849 18.6673 23.25 17.1505 23.25 15.5H20.25C20.25 16.7095 19.956 17.3177 19.6368 17.6368C19.3177 17.956 18.7095 18.25 17.5 18.25V21.25ZM23.25 15.5V8.5H20.25V15.5H23.25ZM23.25 8.5C23.25 6.84953 22.849 5.33268 21.7582 4.24184C20.6673 3.151 19.1505 2.75 17.5 2.75V5.75C18.7095 5.75 19.3177 6.044 19.6368 6.36316C19.956 6.68232 20.25 7.29047 20.25 8.5H23.25ZM17.5 2.75H7.5V5.75H17.5V2.75Z" fill="#F05A27" mask="url(#path-1-inside-1_13443_91)"/>
</g>
<path id="Vector_2" d="M12.4948 12.1175C13.0362 12.1175 13.6037 11.9845 14.0886 11.6909C13.6376 11.9708 13.0765 12.12 12.4998 12.12C12.0857 12.12 11.6782 12.043 11.3113 11.8948C11.6916 12.0468 12.1001 12.1175 12.4948 12.1175Z" fill="#F05A27" stroke="#F05A27" stroke-width="1.5"/>
</g>
</g>
</svg>
