<svg width="25" height="24" viewBox="0 0 25 24" fill="none" xmlns="http://www.w3.org/2000/svg">
<g id="vuesax/outline/whatsapp">
<g id="whatsapp">
<path id="Vector" d="M2.50014 22.7502C2.30014 22.7502 2.11011 22.6702 1.97011 22.5302C1.78011 22.3402 1.70016 22.0602 1.77016 21.8002L3.03017 17.0902C2.19017 15.5302 1.75014 13.7702 1.75014 11.9902C1.75014 6.06023 6.57014 1.24023 12.5001 1.24023C18.4301 1.24023 23.2501 6.06023 23.2501 11.9902C23.2501 17.9202 18.4301 22.7402 12.5001 22.7402C10.6901 22.7402 8.92017 22.2902 7.34017 21.4302L2.70015 22.7202C2.63015 22.7402 2.57014 22.7502 2.50014 22.7502ZM7.44014 19.8802C7.57014 19.8802 7.70015 19.9203 7.82015 19.9803C9.23015 20.8103 10.8501 21.2502 12.5001 21.2502C17.6001 21.2502 21.7501 17.1002 21.7501 12.0002C21.7501 6.90024 17.6001 2.75024 12.5001 2.75024C7.40014 2.75024 3.25014 6.90024 3.25014 12.0002C3.25014 13.6302 3.68013 15.2202 4.49013 16.6202C4.59013 16.7902 4.62015 17.0002 4.57015 17.1902L3.57015 20.9302L7.25014 19.9102C7.31014 19.8902 7.38014 19.8802 7.44014 19.8802Z" fill="#F05A27"/>
<path id="Vector_2" d="M15.2402 17.7603C14.6202 17.7603 13.9802 17.6203 13.3102 17.3303C12.6802 17.0603 12.0502 16.7003 11.4402 16.2503C10.8402 15.8103 10.2503 15.3103 9.71027 14.7703C9.17027 14.2203 8.67022 13.6403 8.23022 13.0403C7.78022 12.4103 7.42022 11.7903 7.16022 11.1803C6.88022 10.5203 6.74023 9.87029 6.74023 9.25029C6.74023 8.81029 6.82021 8.39029 6.97021 8.00029C7.13021 7.59029 7.39022 7.22028 7.73022 6.90028C8.37022 6.27028 9.29026 6.0403 10.0203 6.3903C10.2703 6.5003 10.4803 6.6803 10.6403 6.9203L11.8002 8.55027C11.9202 8.71027 12.0103 8.88027 12.0803 9.05027C12.1603 9.25027 12.2103 9.4503 12.2103 9.6403C12.2103 9.9003 12.1402 10.1603 12.0002 10.3903C11.9102 10.5403 11.7802 10.7203 11.6102 10.8903L11.4802 11.0303C11.5402 11.1103 11.6102 11.2103 11.7202 11.3303C11.9302 11.5703 12.1602 11.8303 12.4102 12.0803C12.6602 12.3203 12.9102 12.5603 13.1602 12.7703C13.2802 12.8703 13.3803 12.9503 13.4603 13.0003L13.6002 12.8603C13.7802 12.6803 13.9603 12.5403 14.1403 12.4503C14.4703 12.2403 14.9802 12.1903 15.4302 12.3803C15.5902 12.4403 15.7502 12.5303 15.9202 12.6503L17.5903 13.8303C17.8203 13.9903 18.0002 14.2103 18.1202 14.4603C18.2202 14.7103 18.2603 14.9303 18.2603 15.1603C18.2603 15.4603 18.1902 15.7503 18.0602 16.0303C17.9302 16.2903 17.7802 16.5203 17.6002 16.7303C17.2802 17.0803 16.9103 17.3403 16.5103 17.5103C16.1103 17.6803 15.6802 17.7603 15.2402 17.7603ZM9.29022 7.74028C9.23022 7.74028 9.03027 7.74028 8.78027 7.99028C8.59027 8.17028 8.46024 8.36029 8.37024 8.57029C8.28024 8.78029 8.24023 9.0203 8.24023 9.2603C8.24023 9.6803 8.34022 10.1303 8.54022 10.6103C8.75022 11.1103 9.06025 11.6403 9.44025 12.1703C9.83025 12.7003 10.2703 13.2303 10.7603 13.7203C11.2503 14.2003 11.7702 14.6503 12.3102 15.0503C12.8302 15.4303 13.3603 15.7303 13.8903 15.9603C14.6503 16.2903 15.3502 16.3703 15.9202 16.1303C16.1202 16.0503 16.3002 15.9103 16.4802 15.7303C16.5702 15.6303 16.6403 15.5303 16.7003 15.4003C16.7303 15.3303 16.7502 15.2503 16.7502 15.1803C16.7502 15.1603 16.7502 15.1303 16.7202 15.0703L15.0502 13.9103C14.9802 13.8603 14.9102 13.8203 14.8502 13.8003C14.8102 13.8203 14.7503 13.8503 14.6403 13.9603L14.2603 14.3403C13.9703 14.6303 13.5103 14.7103 13.1403 14.5803L12.9603 14.5003C12.7303 14.3803 12.4702 14.2003 12.1802 13.9503C11.9002 13.7103 11.6303 13.4603 11.3403 13.1803C11.0603 12.8903 10.8103 12.6203 10.5703 12.3403C10.3103 12.0303 10.1303 11.7803 10.0103 11.5703L9.90027 11.3103C9.87027 11.2103 9.86023 11.1003 9.86023 11.0003C9.86023 10.7203 9.96027 10.4703 10.1503 10.2703L10.5303 9.88029C10.6403 9.77029 10.6803 9.7103 10.7003 9.6703C10.6703 9.6003 10.6303 9.54029 10.5803 9.47029L9.41022 7.82029L9.29022 7.74028Z" fill="#F05A27"/>
</g>
</g>
</svg>
